mpv-osd-symbols.sfdir
StartChar: uniE001
Encoding: 57345 57345 1
Width: 880
GlyphClass: 2
Flags: MW
HStem: 780 20G<200 200>
VStem: 200 375<400 400 400 800>
LayerCount: 2
Fore
SplineSet
575 400 m 1
 200 0 l 1
 200 800 l 1
 575 400 l 1
EndSplineSet
EndChar
StartChar: uniE002
Encoding: 57346 57346 2
Width: 880
GlyphClass: 2
Flags: MW
HStem: 0 800<200 350 200 350 200 500 500 650>
VStem: 200 150<0 800 0 800> 500 150<0 800 0 800>
LayerCount: 2
Fore
SplineSet
350 800 m 1
 350 0 l 1
 200 0 l 1
 200 800 l 1
 350 800 l 1
650 800 m 1
 650 0 l 1
 500 0 l 1
 500 800 l 1
 650 800 l 1
EndSplineSet
EndChar
StartChar: uniE003
Encoding: 57347 57347 3
Width: 880
GlyphClass: 2
Flags: MW
HStem: 0 720<110 775 110 775>
VStem: 110 665<0 720 0 720>
LayerCount: 2
Fore
SplineSet
775 720 m 1
 775 0 l 1
 110 0 l 1
 110 720 l 1
 775 720 l 1
EndSplineSet
EndChar
StartChar: uniE004
Encoding: 57348 57348 4
Width: 880
GlyphClass: 2
Flags: MW
HStem: 780 20G<423 423 813 813>
VStem: 48 765<400 400>
LayerCount: 2
Fore
SplineSet
423 800 m 1
 423 0 l 1
 48 400 l 1
 423 800 l 1
813 800 m 1
 813 0 l 1
 438 400 l 1
 813 800 l 1
EndSplineSet
EndChar
StartChar: uniE005
Encoding: 57349 57349 5
Width: 880
GlyphClass: 2
Flags: MW
HStem: 780 20G<95 95 485 485>
VStem: 95 765<400 400 400 800 400 800>
LayerCount: 2
Fore
SplineSet
470 400 m 1
 95 0 l 1
 95 800 l 1
 470 400 l 1
860 400 m 1
 485 0 l 1
 485 800 l 1
 860 400 l 1
EndSplineSet
EndChar
StartChar: uniE006
Encoding: 57350 57350 6
Width: 880
GlyphClass: 2
Flags: MW
HStem: -10 11<396 461 396 543> 196 171<397 461 396 462> 401 31 801 9<397 462 397 397>
VStem: 20 9<369 434 369 513> 224 173<369 408 367 434 367 434> 363 34 397 65<367 404 367 408 367 404 606 801> 462 173<368 404 404 404> 830 10<368 433 433 433>
LayerCount: 2
Fore
SplineSet
430 810 m 0x9940
 656 810 840 626 840 400 c 0
 840 174 656 -10 430 -10 c 0
 204 -10 20 174 20 400 c 0
 20 626 204 810 430 810 c 0x9940
397 606 m 1x5280
 462 606 l 1
 462 801 l 1
 397 801 l 1
 397 606 l 1x5280
462 367 m 1
 462 404 l 1
 710 627 l 1
 683 657 l 1
 439 437 l 1
 363 592 l 1
 318 570 l 1x4280
 397 408 l 1
 397 367 l 1x44
 462 367 l 1
224 434 m 1
 29 434 l 1
 29 369 l 1
 224 369 l 1
 224 434 l 1
830 368 m 1
 830 433 l 1
 635 433 l 1
 635 368 l 1
 830 368 l 1
461 196 m 1
 396 196 l 1
 396 1 l 1
 461 1 l 1
 461 196 l 1
EndSplineSet
EndChar
StartChar: uniE007
Encoding: 57351 57351 7
Width: 880
GlyphClass: 2
Flags: MW
HStem: -10 80<339 430 339 543> 730 80<339 430>
VStem: 20 80<309 491 309 513>
LayerCount: 2
Fore
SplineSet
430 -10 m 0
 204 -10 20 174 20 400 c 0
 20 626 204 810 430 810 c 0
 656 810 840 626 840 400 c 0
 840 174 656 -10 430 -10 c 0
430 70 m 1
 430 730 l 1
 248 730 100 582 100 400 c 0
 100 218 248 70 430 70 c 1
EndSplineSet
EndChar
StartChar: uniE008
Encoding: 57352 57352 8
Width: 880
GlyphClass: 2
Flags: MW
HStem: -10 80<339 521 339 543> 240 160<269 313 546 590> 480 160<408 452> 730 80<339 521>
VStem: 20 80<309 491 309 513> 211 160<298 342> 350 160<538 582> 488 160<298 342> 760 80<309 491>
LayerCount: 2
Fore
SplineSet
430 -10 m 0xfa80
 204 -10 20 174 20 400 c 0
 20 626 204 810 430 810 c 0
 656 810 840 626 840 400 c 0
 840 174 656 -10 430 -10 c 0xfa80
430 70 m 0
 612 70 760 218 760 400 c 0
 760 582 612 730 430 730 c 0
 248 730 100 582 100 400 c 0
 100 218 248 70 430 70 c 0
430 480 m 0
 386 480 350 516 350 560 c 0
 350 604 386 640 430 640 c 0
 474 640 510 604 510 560 c 0
 510 516 474 480 430 480 c 0
291 240 m 0xfd80
 247 240 211 276 211 320 c 0
 211 364 247 400 291 400 c 0
 335 400 371 364 371 320 c 0
 371 276 335 240 291 240 c 0xfd80
568 240 m 0
 524 240 488 276 488 320 c 0
 488 364 524 400 568 400 c 0
 612 400 648 364 648 320 c 0
 648 276 612 240 568 240 c 0
EndSplineSet
EndChar
StartChar: uniE009
Encoding: 57353 57353 9
Width: 1000
GlyphClass: 2
Flags: MW
HStem: 630 20G<1000 1000>
VStem: 0 1000<150 150>
LayerCount: 2
Fore
SplineSet
1000 150 m 1
 0 150 l 1
 1000 650 l 1
 1000 150 l 1
EndSplineSet
EndChar
StartChar: uniE00A
Encoding: 57354 57354 10
Width: 880
GlyphClass: 2
Flags: MW
HStem: 252 48<406 406 456 456> 375 50<57 282 57 282 578 805> 500 48<406 406> 627 20G<149 149 713 713>
VStem: 282 48<375 375 425 425> 406 50<26 252 26 252 548 774> 530 48<375 375>
LayerCount: 2
Fore
SplineSet
805 375 m 1
 578 375 l 1
 574 352 565 331 553 313 c 1
 713 153 l 1
 678 118 l 1
 518 278 l 1
 500 265 479 256 456 252 c 1
 456 26 l 1
 406 26 l 1
 406 252 l 1
 383 256 362 265 343 277 c 1
 184 118 l 1
 149 153 l 1
 308 312 l 1
 295 330 286 352 282 375 c 1
 57 375 l 1
 57 425 l 1
 282 425 l 1
 286 448 295 470 308 488 c 1
 149 647 l 1
 184 682 l 1
 343 523 l 1
 362 535 383 544 406 548 c 1
 406 774 l 1
 456 774 l 1
 456 548 l 1
 479 544 500 535 518 522 c 1
 678 682 l 1
 713 647 l 1
 553 487 l 1
 565 469 574 448 578 425 c 1
 805 425 l 1
 805 375 l 1
430 300 m 0
 485 300 530 345 530 400 c 0
 530 455 485 500 430 500 c 0
 375 500 330 455 330 400 c 0
 330 345 375 300 430 300 c 0
EndSplineSet
EndChar
StartChar: uniE00B
Encoding: 57355 57355 11
Width: 880
GlyphClass: 2
Flags: MW
HStem: -10 244<341 519 341 543> 566 54<413.5 446.5 413.5 519> 740 70<413.5 446.5>
VStem: 20 88<354 446 354 513> 752 88<354 446>
LayerCount: 2
Fore
SplineSet
430 -10 m 0
 204 -10 20 174 20 400 c 0
 20 626 204 810 430 810 c 0
 656 810 840 626 840 400 c 0
 840 174 656 -10 430 -10 c 0
430 620 m 0
 463 620 490 647 490 680 c 0
 490 713 463 740 430 740 c 0
 397 740 370 713 370 680 c 0
 370 647 397 620 430 620 c 0
430 234 m 0
 608 234 752 308 752 400 c 0
 752 492 608 566 430 566 c 0
 252 566 108 492 108 400 c 0
 108 308 252 234 430 234 c 0
EndSplineSet
EndChar
StartChar: uniE00D
Encoding: 57357 57357 34
Width: 880
Flags: HWO
HStem: 780 20G<200 200>
VStem: 200 375<400 400 400 800>
LayerCount: 2
Fore
SplineSet
200 400 m 1
 575 800 l 1
 575 0 l 1
 200 400 l 1
EndSplineSet
EndChar
StartChar: uniE010
Encoding: 57360 57360 12
Width: 334
GlyphClass: 2
Flags: MW
HStem: 0 90<221 258 221 258> 550 90<221 258 221 221>
VStem: 76 145<90 550 90 640 90 640>
LayerCount: 2
Fore
SplineSet
258 640 m 1
 258 550 l 1
 221 550 l 1
 221 90 l 1
 258 90 l 1
 258 0 l 1
 76 0 l 1
 76 640 l 1
 258 640 l 1
EndSplineSet
EndChar
StartChar: uniE011
Encoding: 57361 57361 13
Width: 334
GlyphClass: 2
Flags: MW
HStem: 0 640<84 250 84 250>
VStem: 84 166<0 640 0 640>
LayerCount: 2
Fore
SplineSet
250 640 m 1
 250 0 l 1
 84 0 l 1
 84 640 l 1
 250 640 l 1
EndSplineSet
EndChar
StartChar: uniE012
Encoding: 57362 57362 14
Width: 334
GlyphClass: 2
Flags: MW
HStem: 0 90<76 113 76 258 76 113> 550 90<76 113 76 258>
VStem: 113 145<90 550 550 550>
LayerCount: 2
Fore
SplineSet
113 90 m 1
 113 550 l 1
 76 550 l 1
 76 640 l 1
 258 640 l 1
 258 0 l 1
 76 0 l 1
 76 90 l 1
 113 90 l 1
EndSplineSet
EndChar
StartChar: uniE013
Encoding: 57363 57363 15
Width: 334
GlyphClass: 2
Flags: MW
HStem: 255 130<102 232 102 232>
VStem: 102 130<255 385 255 385>
LayerCount: 2
Fore
SplineSet
232 385 m 1
 232 255 l 1
 102 255 l 1
 102 385 l 1
 232 385 l 1
EndSplineSet
EndChar
StartChar: uniE101
Encoding: 57601 57601 16
Width: 880
GlyphClass: 2
Flags: MW
HStem: 780 20G<222 222>
VStem: 222 600<400 400 400 800 400 800>
LayerCount: 2
Fore
SplineSet
822 400 m 1
 222 0 l 1
 222 800 l 1
 822 400 l 1
EndSplineSet
EndChar
StartChar: uniE102
Encoding: 57602 57602 35
Width: 2048
VWidth: 2048
Flags: HW
LayerCount: 2
Fore
SplineSet
1724 1060 m 1
 324 1060 l 1
 324 1252 l 1
 1724 1252 l 1
 1724 1060 l 1
1724 636 m 1
 324 636 l 1
 324 828 l 1
 1724 828 l 1
 1724 636 l 1
1724 212 m 1
 324 212 l 1
 324 404 l 1
 1724 404 l 1
 1724 212 l 1
EndSplineSet
EndChar
StartChar: uniE104
Encoding: 57604 57604 17
Width: 880
GlyphClass: 2
Flags: MW
HStem: 0 800<3 126 3 126 3 502 3 878> 780 20G<3 126 126 126 502 502 878 878>
VStem: 3 123<0 800 0 800>
LayerCount: 2
Fore
SplineSet
126 800 m 1x60
 126 0 l 1
 3 0 l 1xa0
 3 800 l 1
 126 800 l 1x60
502 800 m 1
 502 0 l 1
 127 400 l 1
 502 800 l 1
878 800 m 1
 878 0 l 1
 503 400 l 1
 878 800 l 1
EndSplineSet
EndChar
StartChar: uniE105
Encoding: 57605 57605 18
Width: 880
GlyphClass: 2
Flags: MW
HStem: 0 800<3 3 3 379 3 755 755 878> 780 20G<3 3 379 379 755 878 878 878>
VStem: 755 123<0 800>
LayerCount: 2
Fore
SplineSet
3 0 m 1x60
 3 800 l 1
 378 400 l 1
 3 0 l 1x60
379 0 m 1xa0
 379 800 l 1
 754 400 l 1
 379 0 l 1xa0
878 0 m 1
 755 0 l 1
 755 800 l 1
 878 800 l 1
 878 0 l 1
EndSplineSet
EndChar
StartChar: uniE106
Encoding: 57606 57606 19
Width: 880
GlyphClass: 2
Flags: MW
HStem: 0 649<68.5 556.5>
VStem: 0 880
LayerCount: 2
Fore
SplineSet
880 380 m 0
 880 230 685 101 449 101 c 0
 390 101 336 107 283 118 c 1
 278 49 189 0 85 0 c 0
 52 0 24 14 0 40 c 1
 82 48 137 93 137 158 c 0
 137 163 137 168 135 172 c 0
 58 217 19 273 19 380 c 0
 19 528 258 649 449 649 c 0
 664 649 880 508 880 380 c 0
EndSplineSet
EndChar
StartChar: uniE107
Encoding: 57607 57607 20
Width: 880
GlyphClass: 2
Flags: MW
HStem: 0 60<0 60 60 820> 106 50<146 343 146 343 146 390 390 641 680 735> 207 50<99 317 99 317 99 363 363 488 529 781> 580 60<60 820 60 820>
VStem: 0 60<60 580> 99 218<207 257 207 257> 146 197<106 156 106 156> 363 125<207 257 207 257> 529 112<106 257 106 257> 680 55<106 156 106 156> 820 60<0 60 60 580>
LayerCount: 2
Fore
SplineSet
0 60 m 2xfde0
 0 580 l 2
 0 610 30 640 60 640 c 2
 820 640 l 2
 850 640 880 610 880 580 c 2
 880 60 l 2
 880 30 850 0 820 0 c 2
 60 0 l 2
 30 0 0 30 0 60 c 2xfde0
60 60 m 1
 820 60 l 1
 820 580 l 1
 60 580 l 1
 60 60 l 1
317 257 m 1
 317 207 l 1
 99 207 l 1
 99 257 l 1
 317 257 l 1
488 257 m 1
 488 207 l 1
 363 207 l 1
 363 257 l 1
 488 257 l 1
781 257 m 1
 781 207 l 1
 529 207 l 1
 529 257 l 1
 781 257 l 1
343 156 m 1x4280
 343 106 l 1
 146 106 l 1
 146 156 l 1
 343 156 l 1x4280
641 156 m 1
 641 106 l 1
 390 106 l 1
 390 156 l 1x41c0
 641 156 l 1
735 156 m 1
 735 106 l 1
 680 106 l 1
 680 156 l 1
 735 156 l 1
EndSplineSet
EndChar
StartChar: uniE108
Encoding: 57608 57608 21
Width: 880
GlyphClass: 2
Flags: MW
HStem: 80 60<0 60 60 820> 321 159<274 606 274 606> 660 60<60 820 60 820>
VStem: 0 60<140 660> 274 332<321 480 321 480> 820 60<80 140 140 660>
LayerCount: 2
Fore
SplineSet
0 140 m 2
 0 660 l 2
 0 690 30 720 60 720 c 2
 820 720 l 2
 850 720 880 690 880 660 c 2
 880 140 l 2
 880 110 850 80 820 80 c 2
 60 80 l 2
 30 80 0 110 0 140 c 2
60 140 m 1
 820 140 l 1
 820 660 l 1
 60 660 l 1
 60 140 l 1
580 600 m 1
 760 600 l 1
 760 420 l 1
 580 600 l 1
606 480 m 1
 606 321 l 1
 274 321 l 1
 274 480 l 1
 606 480 l 1
300 200 m 1
 120 200 l 1
 120 380 l 1
 300 200 l 1
EndSplineSet
EndChar
StartChar: uniE109
Encoding: 57609 57609 22
Width: 880
GlyphClass: 2
Flags: MW
HStem: 80 60<0 60 60 820> 296 209<285 595 285 595> 660 60<60 820 60 820>
VStem: 0 60<140 660> 120 107<400 400 400 510> 285 310<296 505 296 505> 653 107<400 400> 820 60<80 140 140 660>
LayerCount: 2
Fore
SplineSet
0 140 m 2
 0 660 l 2
 0 690 30 720 60 720 c 2
 820 720 l 2
 850 720 880 690 880 660 c 2
 880 140 l 2
 880 110 850 80 820 80 c 2
 60 80 l 2
 30 80 0 110 0 140 c 2
60 140 m 1
 820 140 l 1
 820 660 l 1
 60 660 l 1
 60 140 l 1
227 400 m 1
 120 290 l 1
 120 510 l 1
 227 400 l 1
760 290 m 1
 653 400 l 1
 760 510 l 1
 760 290 l 1
595 505 m 1
 595 296 l 1
 285 296 l 1
 285 505 l 1
 595 505 l 1
EndSplineSet
EndChar
StartChar: uniE10A
Encoding: 57610 57610 23
Width: 1977
GlyphClass: 2
Flags: MW
HStem: 242 248<2 155 2 156>
LayerCount: 2
Fore
SplineSet
830 220 m 0
 830 211 825 207 817 207 c 0
 814 207 811 208 809 210 c 2
 670 349 l 1
 533 211 l 2
 530 208 528 207 524 207 c 0
 516 207 512 212 512 220 c 0
 512 223 513 226 515 228 c 2
 653 366 l 1
 515 504 l 2
 513 506 512 509 512 512 c 0
 512 521 516 525 524 525 c 0
 528 525 530 524 533 522 c 2
 670 384 l 1
 809 522 l 2
 811 524 814 525 817 525 c 0
 825 525 830 521 830 512 c 0
 830 509 829 507 827 505 c 2
 688 366 l 1
 827 228 l 2
 829 226 830 223 830 220 c 0
398 58 m 1
 155 242 l 1
 2 242 l 1
 2 490 l 1
 156 490 l 1
 398 674 l 1
 398 58 l 1
EndSplineSet
EndChar
StartChar: uniE10B
Encoding: 57611 57611 24
Width: 1977
GlyphClass: 2
Flags: MW
HStem: 242 248<2 155 2 156>
VStem: 603 47<326.5 405>
LayerCount: 2
Fore
SplineSet
650 366 m 0
 650 281 615 198 545 119 c 1
 507 142 l 1
 571 213 603 287 603 366 c 0
 603 444 571 518 507 590 c 1
 545 613 l 1
 615 534 650 452 650 366 c 0
398 58 m 1
 155 242 l 1
 2 242 l 1
 2 490 l 1
 156 490 l 1
 398 674 l 1
 398 58 l 1
EndSplineSet
EndChar
StartChar: uniE10C
Encoding: 57612 57612 25
Width: 1977
GlyphClass: 2
Flags: MW
HStem: 242 248<2 155 2 156>
VStem: 603 47<326.5 405> 717 47<316.5 416>
LayerCount: 2
Fore
SplineSet
764 366 m 0
 764 258 720 156 631 61 c 1
 593 84 l 1
 675 173 717 267 717 366 c 0
 717 466 675 559 593 647 c 1
 631 671 l 1
 720 578 764 476 764 366 c 0
650 366 m 0
 650 281 615 198 545 119 c 1
 507 142 l 1
 571 213 603 287 603 366 c 0
 603 444 571 518 507 590 c 1
 545 613 l 1
 615 534 650 452 650 366 c 0
398 58 m 1
 155 242 l 1
 2 242 l 1
 2 490 l 1
 156 490 l 1
 398 674 l 1
 398 58 l 1
EndSplineSet
EndChar
StartChar: uniE10D
Encoding: 57613 57613 26
Width: 1977
GlyphClass: 2
Flags: MW
HStem: 242 248<2 155 2 156> 709 20G<717 717>
VStem: 603 47<326.5 405> 717 47<316.5 416> 830 47<304 426.5>
LayerCount: 2
Fore
SplineSet
877 366 m 0
 877 236 824 115 717 3 c 1
 679 27 l 1
 780 130 830 242 830 366 c 0
 830 487 780 600 679 705 c 1
 717 729 l 1
 824 617 877 496 877 366 c 0
764 366 m 0
 764 258 720 156 631 61 c 1
 593 84 l 1
 675 173 717 267 717 366 c 0
 717 466 675 559 593 647 c 1
 631 671 l 1
 720 578 764 476 764 366 c 0
650 366 m 0
 650 281 615 198 545 119 c 1
 507 142 l 1
 571 213 603 287 603 366 c 0
 603 444 571 518 507 590 c 1
 545 613 l 1
 615 534 650 452 650 366 c 0
398 58 m 1
 155 242 l 1
 2 242 l 1
 2 490 l 1
 156 490 l 1
 398 674 l 1
 398 58 l 1
EndSplineSet
EndChar
StartChar: uniE10E
Encoding: 57614 57614 27
Width: 1977
GlyphClass: 2
Flags: MW
HStem: 49 95<806 818.5> 242 248<2 155 2 156>
VStem: 559 47<326.5 405> 673 47<316.5 416> 767 91<90 103.5 648 652>
LayerCount: 2
Fore
SplineSet
720 366 m 0
 720 258 676 156 587 61 c 1
 549 84 l 1
 631 173 673 267 673 366 c 0
 673 466 631 559 549 647 c 1
 587 671 l 1
 676 578 720 476 720 366 c 0
606 366 m 0
 606 281 571 198 501 119 c 1
 463 142 l 1
 527 213 559 287 559 366 c 0
 559 444 527 518 463 590 c 1
 501 613 l 1
 571 534 606 452 606 366 c 0
398 58 m 1
 155 242 l 1
 2 242 l 1
 2 490 l 1
 156 490 l 1
 398 674 l 1
 398 58 l 1
858 648 m 1
 824 238 l 2
 823 224 819 217 812 217 c 0
 805 217 801 224 800 238 c 2
 767 648 l 1
 767 652 l 2
 767 665 771 675 780 682 c 0
 789 690 800 694 812 694 c 0
 825 694 835 690 844 682 c 0
 853 675 858 665 858 652 c 2
 858 648 l 1
858 97 m 0
 858 83 853 72 845 63 c 0
 836 53 825 49 812 49 c 0
 800 49 789 53 780 63 c 0
 771 72 767 83 767 97 c 0
 767 110 771 121 780 130 c 0
 789 140 800 144 812 144 c 0
 825 144 836 140 845 130 c 0
 853 121 858 110 858 97 c 0
EndSplineSet
EndChar
StartChar: uniE110
Encoding: 57616 57616 28
Width: 880
GlyphClass: 2
Flags: MW
HStem: 780 20G<656 656>
VStem: 56 600<400 400>
LayerCount: 2
Fore
SplineSet
656 0 m 1
 56 400 l 1
 656 800 l 1
 656 0 l 1
EndSplineSet
EndChar
StartChar: uniE111
Encoding: 57617 57617 29
Width: 880
GlyphClass: 2
Flags: W
LayerCount: 2
Fore
SplineSet
0 140 m 2
 0 660 l 2
 0 690 30 720 60 720 c 2
 820 720 l 2
 850 720 880 690 880 660 c 2
 880 140 l 2
 880 110 850 80 820 80 c 2
 60 80 l 2
 30 80 0 110 0 140 c 2
60 140 m 1
 820 140 l 1
 820 660 l 1
 60 660 l 1
 60 140 l 1
227 400 m 1
 120 290 l 1
 120 510 l 1
 227 400 l 1
760 290 m 1
 653 400 l 1
 760 510 l 1
 760 290 l 1
595 505 m 1
 595 296 l 1
 285 296 l 1
 285 505 l 1
 595 505 l 1
EndSplineSet
EndChar
StartChar: uniE112
Encoding: 57618 57618 30
Width: 768
VWidth: 1176
Flags: HW
LayerCount: 2
Fore
SplineSet
512 40 m 1
 0 40 l 1
 0 168 l 1
 512 168 l 1
 512 40 l 1
EndSplineSet
EndChar
StartChar: uniE113
Encoding: 57619 57619 31
Width: 622
VWidth: 1178
Flags: HW
LayerCount: 2
Fore
SplineSet
768 42 m 5
 0 42 l 5
 0 746 l 5
 768 746 l 5
 768 42 l 5
704 106 m 5
 704 618 l 5
 64 618 l 5
 64 106 l 5
 704 106 l 5
EndSplineSet
EndChar
StartChar: uniE114
Encoding: 57620 57620 32
Width: 896
VWidth: 1178
Flags: HW
LayerCount: 2
Fore
SplineSet
768 298 m 1
 576 298 l 1
 576 42 l 1
 0 42 l 1
 0 490 l 1
 192 490 l 1
 192 746 l 1
 768 746 l 1
 768 298 l 1
704 362 m 1
 704 618 l 1
 256 618 l 1
 256 490 l 1
 576 490 l 1
 576 362 l 1
 704 362 l 1
512 106 m 1
 512 362 l 1
 64 362 l 1
 64 106 l 1
 512 106 l 1
EndSplineSet
EndChar
StartChar: uniE115
Encoding: 57621 57621 33
Width: 844
VWidth: 1112
Flags: HW
LayerCount: 2
Fore
SplineSet
671 40 m 1
 575 40 l 1
 335 277 l 1
 98 40 l 1
 -1 40 l 1
 -1 136 l 1
 236 376 l 1
 -1 613 l 1
 -1 712 l 1
 98 712 l 1
 335 475 l 1
 575 712 l 1
 671 712 l 1
 671 613 l 1
 434 376 l 1
 671 139 l 1
 671 40 l 1
EndSplineSet
EndChar
StartChar: uniE200
Encoding: 57856 57856 36
Width: 880
VWidth: 1001
Flags: HW
LayerCount: 2
Fore
SplineSet
90 618.75 m 0
 90 636.872070312 104.690429688 651.5625 122.8125 651.5625 c 2
 757.1875 651.5625 l 2
 775.30859375 651.5625 790 636.872070312 790 618.75 c 0
 790 600.627929688 775.30859375 585.9375 757.1875 585.9375 c 2
 122.8125 585.9375 l 2
 104.690429688 585.9375 90 600.627929688 90 618.75 c 0
90 400 m 0
 90 418.122070312 104.690429688 432.8125 122.8125 432.8125 c 2
 757.1875 432.8125 l 2
 775.30859375 432.8125 790 418.122070312 790 400 c 0
 790 381.87890625 775.30859375 367.1875 757.1875 367.1875 c 2
 122.8125 367.1875 l 2
 104.690429688 367.1875 90 381.87890625 90 400 c 0
122.8125 214.0625 m 2
 757.1875 214.0625 l 2
 775.30859375 214.0625 790 199.37109375 790 181.25 c 0
 790 163.12890625 775.30859375 148.4375 757.1875 148.4375 c 2
 122.8125 148.4375 l 2
 104.690429688 148.4375 90 163.12890625 90 181.25 c 0
 90 199.37109375 104.690429688 214.0625 122.8125 214.0625 c 2
EndSplineSet
EndChar
StartChar: uniE201
Encoding: 57857 57857 37
Width: 1000
VWidth: 1099
Flags: H
LayerCount: 2
Fore
SplineSet
910.899414062 680.256835938 m 2
 910.899414062 751.375976562 834.811523438 796.596679688 772.341796875 762.60546875 c 2
 257.274414062 482.34765625 l 2
 192.01953125 446.842773438 192.01953125 353.16015625 257.274414062 317.651367188 c 2
 772.341796875 37.3935546875 l 2
 834.811523438 3.4052734375 910.899414062 48.626953125 910.899414062 119.743164062 c 2
 910.899414062 680.256835938 l 2
EndSplineSet
EndChar
StartChar: uniE202
Encoding: 57858 57858 38
Width: 1000
VWidth: 1099
Flags: H
LayerCount: 2
Fore
SplineSet
208.333007812 680.256835938 m 2
 208.333007812 751.375976562 284.420898438 796.596679688 346.890625 762.60546875 c 2
 861.958007812 482.34765625 l 2
 927.212890625 446.842773438 927.212890625 353.16015625 861.958007812 317.651367188 c 2
 346.890625 37.3935546875 l 2
 284.420898438 3.4052734375 208.333007812 48.626953125 208.333007812 119.743164062 c 2
 208.333007812 680.256835938 l 2
EndSplineSet
EndChar
StartChar: uniE203
Encoding: 57859 57859 39
Width: 880
VWidth: 1053
Flags: HW
LayerCount: 2
Fore
SplineSet
196.9453125 750 m 2
 333.055664062 750 l 2
 370.642578125 750 401.111328125 719.53125 401.111328125 681.944335938 c 2
 401.111328125 118.055664062 l 2
 401.111328125 80.46875 370.642578125 50 333.055664062 50 c 2
 196.9453125 50 l 2
 159.359375 50 128.888671875 80.46875 128.888671875 118.055664062 c 2
 128.888671875 681.944335938 l 2
 128.888671875 719.53125 159.359375 750 196.9453125 750 c 2
546.9453125 750 m 2
 683.055664062 750 l 2
 720.642578125 750 751.111328125 719.53125 751.111328125 681.944335938 c 2
 751.111328125 118.055664062 l 2
 751.111328125 80.46875 720.642578125 50 683.055664062 50 c 2
 546.9453125 50 l 2
 509.359375 50 478.888671875 80.46875 478.888671875 118.055664062 c 2
 478.888671875 681.944335938 l 2
 478.888671875 719.53125 509.359375 750 546.9453125 750 c 2
EndSplineSet
EndChar
StartChar: uniE204
Encoding: 57860 57860 40
Width: 880
VWidth: 987
Flags: HW
LayerCount: 2
Fore
SplineSet
142.5 400 m 0
 142.5 235.696289062 275.6953125 102.5 440 102.5 c 0
 604.302734375 102.5 737.5 235.696289062 737.5 400 c 0
 737.5 564.303710938 604.302734375 697.5 440 697.5 c 0
 275.6953125 697.5 142.5 564.303710938 142.5 400 c 0
440 750 m 0
 633.296875 750 790 593.299804688 790 400 c 0
 790 206.702148438 633.296875 50 440 50 c 0
 246.700195312 50 90 206.702148438 90 400 c 0
 90 593.299804688 246.700195312 750 440 750 c 0
439.758789062 587.309570312 m 2
 440 583.75 l 1
 440 400 l 1
 553.75 400 l 2
 568.240234375 400 580 388.240234375 580 373.75 c 0
 580 360.467773438 570.119140625 349.477539062 557.309570312 347.741210938 c 2
 553.75 347.5 l 1
 413.75 347.5 l 2
 400.466796875 347.5 389.477539062 357.380859375 387.741210938 370.190429688 c 2
 387.5 373.75 l 1
 387.5 583.75 l 2
 387.5 598.239257812 399.259765625 610 413.75 610 c 0
 427.032226562 610 438.021484375 600.118164062 439.758789062 587.309570312 c 2
EndSplineSet
EndChar
StartChar: uniE205
Encoding: 57861 57861 41
Width: 880
VWidth: 1018
Flags: HW
LayerCount: 2
Fore
SplineSet
385.713867188 681.48046875 m 2
 421.602539062 712.025390625 476.805664062 686.518554688 476.805664062 639.389648438 c 2
 476.805664062 492.393554688 l 1
 698.908203125 681.41796875 l 2
 734.795898438 711.962890625 790 686.45703125 790 639.328125 c 2
 790 160.588867188 l 2
 790 128.21875 763.95703125 106.048828125 736.01953125 105.234375 c 2
 732.8359375 105.234375 l 2
 721.111328125 105.577148438 709.213867188 109.7265625 698.908203125 118.49609375 c 2
 476.805664062 307.513671875 l 1
 476.805664062 160.647460938 l 2
 476.805664062 113.521484375 421.60546875 88.0166015625 385.713867188 118.557617188 c 2
 112.690429688 350.908203125 l 2
 82.4365234375 376.655273438 82.4365234375 423.369140625 112.689453125 449.118164062 c 2
 385.713867188 681.48046875 l 2
112.689453125 449.118164062 m 1
 130.600585938 428.075195312 l 1
 112.689453125 449.118164062 l 1
EndSplineSet
EndChar
StartChar: uniE206
Encoding: 57862 57862 42
Width: 1000
VWidth: 1100
Flags: H
LayerCount: 2
Fore
SplineSet
582.104492188 718.284179688 m 2
 890.845703125 455.5234375 l 2
 925.053710938 426.411132812 925.053710938 373.58203125 890.841796875 344.46484375 c 2
 582.099609375 81.71875 l 2
 541.516601562 47.181640625 479.095703125 76.0234375 479.095703125 129.319335938 c 2
 479.095703125 295.427734375 l 1
 227.934570312 81.685546875 l 2
 216.28125 71.76953125 202.827148438 67.0771484375 189.567382812 66.6904296875 c 2
 185.96875 66.6904296875 l 2
 154.375 67.6103515625 124.928710938 92.677734375 124.928710938 129.28125 c 2
 124.928710938 670.653320312 l 2
 124.928710938 723.947265625 187.350585938 752.790039062 227.936523438 718.25 c 2
 479.095703125 504.49609375 l 1
 479.095703125 670.688476562 l 2
 479.095703125 723.982421875 541.516601562 752.825195312 582.104492188 718.284179688 c 2
EndSplineSet
EndChar
StartChar: uniE207
Encoding: 57863 57863 43
Width: 880
VWidth: 1053
Flags: HW
LayerCount: 2
Fore
SplineSet
90.021484375 720.834960938 m 2
 90.021484375 736.942382812 103.080078125 750 119.1875 750 c 0
 135.294921875 750 148.3515625 736.942382812 148.3515625 720.834960938 c 2
 148.3515625 79.205078125 l 2
 148.3515625 63.09765625 135.294921875 50.0400390625 119.1875 50.0400390625 c 0
 103.080078125 50.0400390625 90.021484375 63.09765625 90.021484375 79.205078125 c 2
 90.021484375 720.834960938 l 2
789.978515625 681.83203125 m 2
 789.978515625 118.169921875 l 2
 789.978515625 63.2109375 728.1953125 30.919921875 683.072265625 62.30078125 c 2
 274.822265625 346.236328125 l 2
 235.7265625 373.42578125 235.9296875 431.328125 275.212890625 458.2421875 c 2
 683.462890625 737.969726562 l 2
 728.623046875 768.9140625 789.978515625 736.577148438 789.978515625 681.83203125 c 2
EndSplineSet
EndChar
StartChar: uniE208
Encoding: 57864 57864 44
Width: 1000
VWidth: 1100
Flags: H
LayerCount: 2
Fore
SplineSet
125.00390625 701.979492188 m 2
 125.00390625 760.638671875 190.74609375 795.287109375 239.135742188 762.130859375 c 2
 676.571289062 462.405273438 l 2
 718.662109375 433.567382812 718.87890625 371.525390625 676.991210938 342.392578125 c 2
 239.553710938 38.1591796875 l 2
 191.20703125 4.5341796875 125.00390625 39.1337890625 125.00390625 98.021484375 c 2
 125.00390625 701.979492188 l 2
875 743.771484375 m 2
 875 56.271484375 l 2
 875 39.0126953125 861.008789062 25.021484375 843.75 25.021484375 c 0
 826.491210938 25.021484375 812.5 39.0126953125 812.5 56.271484375 c 2
 812.5 743.771484375 l 2
 812.5 761.030273438 826.491210938 775.021484375 843.75 775.021484375 c 0
 861.008789062 775.021484375 875 761.030273438 875 743.771484375 c 2
EndSplineSet
EndChar
StartChar: uniE209
Encoding: 57865 57865 45
Width: 1000
VWidth: 1100
Flags: H
LayerCount: 2
Fore
SplineSet
500 816.702148438 m 0
 730.116210938 816.702148438 916.666992188 630.154296875 916.666992188 400.03515625 c 0
 916.666992188 169.918945312 730.116210938 -16.6318359375 500 -16.6318359375 c 0
 432.571289062 -16.6318359375 367.409179688 -0.5732421875 308.869140625 29.7021484375 c 2
 149.459960938 -14.7685546875 l 2
 121.754882812 -22.5068359375 93.0244140625 -6.3193359375 85.2880859375 21.384765625 c 0
 82.7275390625 30.5517578125 82.728515625 40.248046875 85.2900390625 49.40625 c 2
 129.775390625 208.693359375 l 2
 99.431640625 267.28515625 83.3330078125 332.522460938 83.3330078125 400.03515625 c 0
 83.3330078125 630.154296875 269.880859375 816.702148438 500 816.702148438 c 0
500 754.202148438 m 0
 304.399414062 754.202148438 145.833007812 595.635742188 145.833007812 400.03515625 c 0
 145.833007812 338.801757812 161.365234375 279.893554688 190.54296875 227.639648438 c 2
 196.8203125 216.401367188 l 1
 150.45703125 50.3935546875 l 1
 316.564453125 96.7353515625 l 1
 327.795898438 90.47265625 l 2
 380.002929688 61.3642578125 438.841796875 45.8681640625 500 45.8681640625 c 0
 695.599609375 45.8681640625 854.166992188 204.435546875 854.166992188 400.03515625 c 0
 854.166992188 595.635742188 695.599609375 754.202148438 500 754.202148438 c 0
364.583007812 358.368164062 m 1
 552.012695312 358.368164062 l 2
 569.270507812 358.368164062 583.262695312 344.376953125 583.262695312 327.118164062 c 0
 583.262695312 311.297851562 571.50390625 298.22265625 556.25 296.151367188 c 2
 552.012695312 295.868164062 l 1
 364.583007812 295.868164062 l 2
 347.32421875 295.868164062 333.333007812 309.860351562 333.333007812 327.118164062 c 0
 333.333007812 342.939453125 345.08984375 356.014648438 360.342773438 358.084960938 c 2
 364.583007812 358.368164062 l 1
 552.012695312 358.368164062 l 1
 364.583007812 358.368164062 l 1
364.583007812 504.202148438 m 1
 635.604492188 504.202148438 l 2
 652.862304688 504.202148438 666.854492188 490.2109375 666.854492188 472.952148438 c 0
 666.854492188 457.130859375 655.095703125 444.055664062 639.845703125 441.985351562 c 2
 635.604492188 441.702148438 l 1
 364.583007812 441.702148438 l 2
 347.32421875 441.702148438 333.333007812 455.693359375 333.333007812 472.952148438 c 0
 333.333007812 488.772460938 345.08984375 501.84765625 360.342773438 503.916015625 c 2
 364.583007812 504.202148438 l 1
 635.604492188 504.202148438 l 1
 364.583007812 504.202148438 l 1
EndSplineSet
EndChar
StartChar: uniE20A
Encoding: 57866 57866 46
Width: 880
VWidth: 987
Flags: HW
LayerCount: 2
Fore
SplineSet
676.249023438 680.080078125 m 2
 739.0703125 680.080078125 790 629.153320312 790 566.331054688 c 2
 790 233.669921875 l 2
 790 170.848632812 739.0703125 119.919921875 676.249023438 119.919921875 c 2
 203.75 119.919921875 l 2
 140.926757812 119.919921875 90 170.848632812 90 233.669921875 c 2
 90 566.331054688 l 2
 90 626.986328125 137.475585938 676.5546875 197.294921875 679.900390625 c 2
 203.75 680.080078125 l 1
 676.249023438 680.080078125 l 2
676.249023438 627.580078125 m 2
 203.75 627.580078125 l 1
 198.7265625 627.377929688 l 2
 167.248046875 624.822265625 142.5 598.466796875 142.5 566.331054688 c 2
 142.5 233.669921875 l 2
 142.5 199.842773438 169.922851562 172.419921875 203.75 172.419921875 c 2
 676.249023438 172.419921875 l 2
 710.077148438 172.419921875 737.5 199.842773438 737.5 233.669921875 c 2
 737.5 566.331054688 l 2
 737.5 600.158203125 710.077148438 627.580078125 676.249023438 627.580078125 c 2
212.5 400.081054688 m 0
 212.5 510.17578125 307.462890625 567.216796875 391.755859375 519.131835938 c 0
 404.348632812 511.948242188 408.734375 495.916992188 401.552734375 483.32421875 c 0
 394.366210938 470.731445312 378.336914062 466.346679688 365.743164062 473.530273438 c 0
 316.825195312 501.434570312 265 470.305664062 265 400.081054688 c 0
 265 329.919921875 316.944335938 298.713867188 365.772460938 326.486328125 c 0
 378.372070312 333.654296875 394.3984375 329.248046875 401.56640625 316.647460938 c 0
 408.734375 304.044921875 404.327148438 288.017578125 391.727539062 280.850585938 c 0
 307.538085938 232.965820312 212.5 290.065429688 212.5 400.081054688 c 0
475 400.081054688 m 0
 475 510.17578125 569.961914062 567.216796875 654.254882812 519.131835938 c 0
 666.848632812 511.948242188 671.234375 495.916992188 664.052734375 483.32421875 c 0
 656.866210938 470.731445312 640.836914062 466.346679688 628.243164062 473.530273438 c 0
 579.32421875 501.434570312 527.5 470.305664062 527.5 400.081054688 c 0
 527.5 329.919921875 579.442382812 298.713867188 628.271484375 326.486328125 c 0
 640.872070312 333.654296875 656.8984375 329.248046875 664.06640625 316.647460938 c 0
 671.234375 304.044921875 666.827148438 288.017578125 654.227539062 280.850585938 c 0
 570.0390625 232.965820312 475 290.065429688 475 400.081054688 c 0
EndSplineSet
EndChar
StartChar: uniE20B
Encoding: 57867 57867 47
Width: 880
VWidth: 987
Flags: HW
LayerCount: 2
Fore
SplineSet
545 671.173828125 m 2
 545 128.827148438 l 2
 545 91.0751953125 500.392578125 71.044921875 472.1796875 96.1337890625 c 2
 314.977539062 235.913085938 l 2
 310.172851562 240.186523438 303.96484375 242.545898438 297.53515625 242.545898438 c 2
 168.75 242.545898438 l 2
 125.2578125 242.545898438 90 277.803710938 90 321.295898438 c 2
 90 478.723632812 l 2
 90 522.215820312 125.2578125 557.473632812 168.75 557.473632812 c 2
 297.536132812 557.473632812 l 2
 303.966796875 557.473632812 310.172851562 559.833007812 314.977539062 564.10546875 c 2
 472.182617188 703.870117188 l 2
 500.392578125 728.953125 545 708.92578125 545 671.173828125 c 2
587.690429688 497.235351562 m 0
 597.94140625 507.486328125 614.559570312 507.486328125 624.811523438 497.235351562 c 2
 685.000976562 437.047851562 l 1
 745.190429688 497.235351562 l 2
 755.44140625 507.486328125 772.059570312 507.486328125 782.311523438 497.235351562 c 0
 792.5625 486.984375 792.5625 470.36328125 782.311523438 460.11328125 c 2
 722.125 399.923828125 l 1
 782.311523438 339.733398438 l 2
 792.5625 329.482421875 792.5625 312.864257812 782.311523438 302.61328125 c 0
 772.059570312 292.360351562 755.44140625 292.360351562 745.190429688 302.61328125 c 2
 685.000976562 362.801757812 l 1
 624.811523438 302.61328125 l 2
 614.559570312 292.360351562 597.94140625 292.360351562 587.690429688 302.61328125 c 0
 577.438476562 312.864257812 577.438476562 329.482421875 587.690429688 339.733398438 c 2
 647.875976562 399.923828125 l 1
 587.690429688 460.11328125 l 2
 577.438476562 470.36328125 577.438476562 486.984375 587.690429688 497.235351562 c 0
EndSplineSet
EndChar
StartChar: uniE20C
Encoding: 57868 57868 48
Width: 1000
VWidth: 1099
Flags: H
LayerCount: 2
Fore
SplineSet
612.670898438 756.59765625 m 0
 620.633789062 747.192382812 625 735.270507812 625 722.950195312 c 2
 625 77.048828125 l 2
 625 48.2822265625 601.68359375 24.9658203125 572.916992188 24.9658203125 c 0
 560.591796875 24.9658203125 548.666992188 29.3369140625 539.262695312 37.298828125 c 2
 332.296875 212.541015625 l 1
 177.083007812 212.541015625 l 2
 125.306640625 212.541015625 83.3330078125 254.515625 83.3330078125 306.291015625 c 2
 83.3330078125 493.791015625 l 2
 83.3330078125 545.567382812 125.306640625 587.541015625 177.083007812 587.541015625 c 2
 332.30078125 587.541015625 l 1
 539.270507812 762.706054688 l 2
 561.224609375 781.2890625 594.091796875 778.553710938 612.670898438 756.59765625 c 0
EndSplineSet
EndChar
StartChar: uniE20D
Encoding: 57869 57869 49
Width: 880
VWidth: 1053
Flags: HW
LayerCount: 2
Fore
SplineSet
603.560546875 732.79296875 m 0
 610.9921875 724.016601562 615.06640625 712.890625 615.06640625 701.391601562 c 2
 615.06640625 98.6064453125 l 2
 615.06640625 71.7646484375 593.306640625 50 566.4609375 50 c 0
 554.958007812 50 543.829101562 54.0791015625 535.052734375 61.513671875 c 2
 341.903320312 225.052734375 l 1
 197.05078125 225.052734375 l 2
 148.73046875 225.052734375 109.559570312 264.2265625 109.559570312 312.544921875 c 2
 109.559570312 487.530273438 l 2
 109.559570312 535.850585938 148.73046875 575.021484375 197.05078125 575.021484375 c 2
 341.907226562 575.021484375 l 1
 535.060546875 738.494140625 l 2
 555.548828125 755.836914062 586.221679688 753.284179688 603.560546875 732.79296875 c 0
696.861328125 530.678710938 m 0
 710.611328125 539.0703125 728.560546875 534.727539062 736.948242188 520.978515625 c 0
 759.264648438 484.420898438 770.440429688 443.514648438 770.440429688 398.850585938 c 0
 770.440429688 354.190429688 759.264648438 313.280273438 736.948242188 276.724609375 c 0
 728.560546875 262.974609375 710.611328125 258.630859375 696.861328125 267.021484375 c 0
 683.116210938 275.4140625 678.772460938 293.36328125 687.163085938 307.108398438 c 0
 703.810546875 334.38671875 712.112304688 364.768554688 712.112304688 398.850585938 c 0
 712.112304688 432.93359375 703.810546875 463.314453125 687.163085938 490.591796875 c 0
 678.772460938 504.33984375 683.116210938 522.288085938 696.861328125 530.678710938 c 0
EndSplineSet
EndChar
StartChar: uniE20E
Encoding: 57870 57870 50
Width: 880
VWidth: 986
Flags: HW
LayerCount: 2
Fore
SplineSet
545 671.172851562 m 2
 545 128.827148438 l 2
 545 91.0751953125 500.391601562 71.044921875 472.178710938 96.1337890625 c 2
 314.977539062 235.913085938 l 2
 310.171875 240.186523438 303.96484375 242.544921875 297.534179688 242.544921875 c 2
 168.75 242.544921875 l 2
 125.2578125 242.544921875 90 277.803710938 90 321.294921875 c 2
 90 478.72265625 l 2
 90 522.21484375 125.2578125 557.47265625 168.75 557.47265625 c 2
 297.536132812 557.47265625 l 2
 303.966796875 557.47265625 310.171875 559.83203125 314.977539062 564.10546875 c 2
 472.182617188 703.869140625 l 2
 500.391601562 728.952148438 545 708.924804688 545 671.172851562 c 2
684.705078125 613.516601562 m 0
 696.353515625 622.145507812 712.79296875 619.696289062 721.423828125 608.045898438 c 0
 764.509765625 549.874023438 790 477.8359375 790 399.922851562 c 0
 790 322.008789062 764.509765625 249.97265625 721.423828125 191.798828125 c 0
 712.79296875 180.147460938 696.353515625 177.700195312 684.705078125 186.328125 c 0
 673.0546875 194.956054688 670.607421875 211.395507812 679.234375 223.046875 c 0
 715.8515625 272.484375 737.5 333.640625 737.5 399.922851562 c 0
 737.5 466.206054688 715.8515625 527.359375 679.234375 576.798828125 c 0
 670.607421875 588.448242188 673.0546875 604.887695312 684.705078125 613.516601562 c 0
620.004882812 526.997070312 m 0
 632.751953125 533.8984375 648.68359375 529.158203125 655.5859375 516.409179688 c 0
 674.352539062 481.737304688 685 442.034179688 685 399.922851562 c 0
 685 357.810546875 674.352539062 318.110351562 655.5859375 283.435546875 c 0
 648.68359375 270.688476562 632.751953125 265.946289062 620.004882812 272.848632812 c 0
 607.25390625 279.750976562 602.51171875 295.682617188 609.4140625 308.4296875 c 0
 624.130859375 335.6171875 632.5 366.752929688 632.5 399.922851562 c 0
 632.5 433.092773438 624.130859375 464.228515625 609.4140625 491.416015625 c 0
 602.51171875 504.165039062 607.25390625 520.094726562 620.004882812 526.997070312 c 0
EndSplineSet
EndChar
StartChar: uniE20F
Encoding: 57871 57871 51
Width: 880
VWidth: 839
Flags: HW
LayerCount: 2
Fore
SplineSet
720 240 m 0
 760 240 l 0
 760 170 l 0
 720 170 l 0
 720 240 l 0
720 630 m 0
 760 630 l 0
 760 300 l 0
 720 300 l 0
 720 630 l 0
438.75 603.379882812 m 2
 438.75 196.620117188 l 2
 438.75 168.306640625 405.293945312 153.283203125 384.133789062 172.100585938 c 2
 266.233398438 276.934570312 l 2
 262.62890625 280.139648438 257.973632812 281.908203125 253.150390625 281.908203125 c 2
 156.5625 281.908203125 l 2
 123.943359375 281.908203125 97.5 308.352539062 97.5 340.970703125 c 2
 97.5 459.041992188 l 2
 97.5 491.661132812 123.943359375 518.104492188 156.5625 518.104492188 c 2
 253.15234375 518.104492188 l 2
 257.974609375 518.104492188 262.62890625 519.874023438 266.233398438 523.079101562 c 2
 384.13671875 627.901367188 l 2
 405.293945312 646.713867188 438.75 631.693359375 438.75 603.379882812 c 2
543.529296875 560.137695312 m 0
 552.265625 566.609375 564.594726562 564.772460938 571.068359375 556.034179688 c 0
 603.3828125 512.405273438 622.5 458.376953125 622.5 399.942382812 c 0
 622.5 341.506835938 603.3828125 287.479492188 571.068359375 243.848632812 c 0
 564.594726562 235.110351562 552.265625 233.275390625 543.529296875 239.74609375 c 0
 534.791015625 246.216796875 532.955078125 258.546875 539.42578125 267.28515625 c 0
 566.888671875 304.36328125 583.125 350.23046875 583.125 399.942382812 c 0
 583.125 449.654296875 566.888671875 495.51953125 539.42578125 532.598632812 c 0
 532.955078125 541.3359375 534.791015625 553.666015625 543.529296875 560.137695312 c 0
495.00390625 495.248046875 m 0
 504.564453125 500.423828125 516.512695312 496.868164062 521.689453125 487.306640625 c 0
 535.764648438 461.302734375 543.75 431.525390625 543.75 399.942382812 c 0
 543.75 368.357421875 535.764648438 338.583007812 521.689453125 312.576171875 c 0
 516.512695312 303.016601562 504.564453125 299.459960938 495.00390625 304.63671875 c 0
 485.440429688 309.813476562 481.883789062 321.76171875 487.060546875 331.322265625 c 0
 498.09765625 351.712890625 504.375 375.064453125 504.375 399.942382812 c 0
 504.375 424.819335938 498.09765625 448.170898438 487.060546875 468.561523438 c 0
 481.883789062 478.124023438 485.440429688 490.071289062 495.00390625 495.248046875 c 0
EndSplineSet
EndChar
StartChar: uniE210
Encoding: 57872 57872 52
Width: 1000
VWidth: 1100
Flags: H
LayerCount: 2
Fore
SplineSet
208.333007812 650 m 2
 208.333007812 566.666992188 l 2
 208.333007812 543.655273438 189.678710938 525 166.666992188 525 c 0
 143.655273438 525 125 543.655273438 125 566.666992188 c 2
 125 650 l 2
 125 719.03515625 180.96484375 775 250 775 c 2
 333.333007812 775 l 2
 356.344726562 775 375 756.344726562 375 733.333007812 c 0
 375 710.321289062 356.344726562 691.666992188 333.333007812 691.666992188 c 2
 250 691.666992188 l 2
 226.98828125 691.666992188 208.333007812 673.01171875 208.333007812 650 c 2
208.333007812 150 m 2
 208.333007812 126.987304688 226.98828125 108.333007812 250 108.333007812 c 2
 333.333007812 108.333007812 l 2
 356.344726562 108.333007812 375 89.6787109375 375 66.6669921875 c 0
 375 43.654296875 356.344726562 25 333.333007812 25 c 2
 250 25 l 2
 180.96484375 25 125 80.962890625 125 150 c 2
 125 233.333007812 l 2
 125 256.345703125 143.655273438 275 166.666992188 275 c 0
 189.678710938 275 208.333007812 256.345703125 208.333007812 233.333007812 c 2
 208.333007812 150 l 2
750 691.666992188 m 2
 666.666992188 691.666992188 l 2
 643.654296875 691.666992188 625 710.321289062 625 733.333007812 c 0
 625 756.344726562 643.654296875 775 666.666992188 775 c 2
 750 775 l 2
 819.037109375 775 875 719.03515625 875 650 c 2
 875 566.666992188 l 2
 875 543.655273438 856.345703125 525 833.333007812 525 c 0
 810.321289062 525 791.666992188 543.655273438 791.666992188 566.666992188 c 2
 791.666992188 650 l 2
 791.666992188 673.01171875 773.012695312 691.666992188 750 691.666992188 c 2
791.666992188 150 m 2
 791.666992188 233.333007812 l 2
 791.666992188 256.345703125 810.321289062 275 833.333007812 275 c 0
 856.345703125 275 875 256.345703125 875 233.333007812 c 2
 875 150 l 2
 875 80.962890625 819.037109375 25 750 25 c 2
 666.666992188 25 l 2
 643.654296875 25 625 43.654296875 625 66.6669921875 c 0
 625 89.6787109375 643.654296875 108.333007812 666.666992188 108.333007812 c 2
 750 108.333007812 l 2
 773.012695312 108.333007812 791.666992188 126.987304688 791.666992188 150 c 2
EndSplineSet
EndChar
StartChar: uniE211
Encoding: 57873 57873 53
Width: 1000
VWidth: 1100
Flags: H
LayerCount: 2
Fore
SplineSet
375 733.333007812 m 2
 375 629.166992188 l 2
 375 571.63671875 328.36328125 525 270.833007812 525 c 2
 166.666992188 525 l 2
 143.655273438 525 125 543.655273438 125 566.666992188 c 0
 125 589.678710938 143.655273438 608.333007812 166.666992188 608.333007812 c 2
 270.833007812 608.333007812 l 2
 282.338867188 608.333007812 291.666992188 617.661132812 291.666992188 629.166992188 c 2
 291.666992188 733.333007812 l 2
 291.666992188 756.344726562 310.321289062 775 333.333007812 775 c 0
 356.344726562 775 375 756.344726562 375 733.333007812 c 2
375 66.6669921875 m 2
 375 43.654296875 356.344726562 25 333.333007812 25 c 0
 310.321289062 25 291.666992188 43.654296875 291.666992188 66.6669921875 c 2
 291.666992188 170.833007812 l 2
 291.666992188 182.337890625 282.338867188 191.666992188 270.833007812 191.666992188 c 2
 166.666992188 191.666992188 l 2
 143.655273438 191.666992188 125 210.321289062 125 233.333007812 c 0
 125 256.345703125 143.655273438 275 166.666992188 275 c 2
 270.833007812 275 l 2
 328.36328125 275 375 228.362304688 375 170.833007812 c 2
 375 66.6669921875 l 2
666.666992188 775 m 0
 689.678710938 775 708.333007812 756.344726562 708.333007812 733.333007812 c 2
 708.333007812 629.166992188 l 2
 708.333007812 617.661132812 717.662109375 608.333007812 729.166992188 608.333007812 c 2
 833.333007812 608.333007812 l 2
 856.345703125 608.333007812 875 589.678710938 875 566.666992188 c 0
 875 543.655273438 856.345703125 525 833.333007812 525 c 2
 729.166992188 525 l 2
 671.637695312 525 625 571.63671875 625 629.166992188 c 2
 625 733.333007812 l 2
 625 756.344726562 643.654296875 775 666.666992188 775 c 0
625 66.6669921875 m 2
 625 170.833007812 l 2
 625 228.362304688 671.637695312 275 729.166992188 275 c 2
 833.333007812 275 l 2
 856.345703125 275 875 256.345703125 875 233.333007812 c 0
 875 210.321289062 856.345703125 191.666992188 833.333007812 191.666992188 c 2
 729.166992188 191.666992188 l 2
 717.662109375 191.666992188 708.333007812 182.337890625 708.333007812 170.833007812 c 2
 708.333007812 66.6669921875 l 2
 708.333007812 43.654296875 689.678710938 25 666.666992188 25 c 0
 643.654296875 25 625 43.654296875 625 66.6669921875 c 2
EndSplineSet
EndChar
StartChar: uniE212
Encoding: 57874 57874 54
Width: 880
VWidth: 1134
Flags: HW
LayerCount: 2
Fore
SplineSet
99.1748046875 733.064453125 m 1
 102.813476562 737.186523438 l 2
 118.584960938 752.95703125 143.401367188 754.169921875 160.564453125 740.825195312 c 2
 164.685546875 737.186523438 l 1
 440 461.90625 l 1
 715.314453125 737.186523438 l 2
 732.3984375 754.271484375 760.1015625 754.271484375 777.185546875 737.186523438 c 0
 794.270507812 720.100585938 794.270507812 692.399414062 777.185546875 675.314453125 c 2
 501.90625 400 l 1
 777.185546875 124.685546875 l 2
 792.958007812 108.9140625 794.168945312 84.0986328125 780.825195312 66.935546875 c 2
 777.185546875 62.814453125 l 2
 761.4140625 47.0419921875 736.598632812 45.8310546875 719.435546875 59.1748046875 c 2
 715.314453125 62.814453125 l 1
 440 338.09375 l 1
 164.685546875 62.814453125 l 2
 147.600585938 45.7294921875 119.899414062 45.7294921875 102.813476562 62.814453125 c 0
 85.728515625 79.8984375 85.728515625 107.6015625 102.813476562 124.685546875 c 2
 378.09375 400 l 1
 102.813476562 675.314453125 l 2
 87.04296875 691.0859375 85.830078125 715.901367188 99.1748046875 733.064453125 c 2
 102.813476562 737.186523438 l 1
 99.1748046875 733.064453125 l 1
EndSplineSet
EndChar
StartChar: uniE213
Encoding: 57875 57875 55
Width: 880
VWidth: 1053
Flags: HW
LayerCount: 2
Fore
SplineSet
128.880859375 361.118164062 m 2
 107.407226562 361.118164062 90 378.525390625 90 400 c 0
 90 421.474609375 107.407226562 438.881835938 128.880859375 438.881835938 c 2
 751.118164062 438.881835938 l 2
 772.591796875 438.881835938 790 421.474609375 790 400 c 0
 790 378.525390625 772.591796875 361.118164062 751.118164062 361.118164062 c 2
 128.880859375 361.118164062 l 2
EndSplineSet
EndChar
StartChar: uniE214
Encoding: 57876 57876 56
Width: 880
VWidth: 1053
Flags: HW
LayerCount: 2
Fore
SplineSet
206.666015625 750 m 2
 673.333007812 750 l 2
 737.767578125 750 790 697.766601562 790 633.333007812 c 2
 790 166.666992188 l 2
 790 102.232421875 737.767578125 50 673.333007812 50 c 2
 206.666015625 50 l 2
 142.233398438 50 90 102.232421875 90 166.666992188 c 2
 90 633.333007812 l 2
 90 697.766601562 142.233398438 750 206.666015625 750 c 2
206.666015625 672.22265625 m 2
 185.188476562 672.22265625 167.77734375 654.810546875 167.77734375 633.333007812 c 2
 167.77734375 166.666992188 l 2
 167.77734375 145.188476562 185.188476562 127.77734375 206.666015625 127.77734375 c 2
 673.333007812 127.77734375 l 2
 694.811523438 127.77734375 712.22265625 145.188476562 712.22265625 166.666992188 c 2
 712.22265625 633.333007812 l 2
 712.22265625 654.810546875 694.811523438 672.22265625 673.333007812 672.22265625 c 2
 206.666015625 672.22265625 l 2
EndSplineSet
EndChar
StartChar: uniE215
Encoding: 57877 57877 57
Width: 880
VWidth: 987
Flags: HW
LayerCount: 2
Fore
SplineSet
283.115234375 645 m 2
 230.326171875 645 l 1
 234.793945312 703.733398438 283.866210938 750 343.74609375 750 c 2
 623.75 750 l 2
 715.564453125 750 790 675.567382812 790 583.75 c 2
 790 303.75 l 2
 790 243.872070312 743.733398438 194.798828125 685 190.33203125 c 1
 685 243.119140625 l 2
 714.682617188 247.365234375 737.5 272.89453125 737.5 303.75 c 2
 737.5 583.75 l 2
 737.5 646.572265625 686.5703125 697.5 623.75 697.5 c 2
 343.74609375 697.5 l 2
 312.888671875 697.5 287.361328125 674.681640625 283.115234375 645 c 2
203.750976562 610 m 2
 536.25390625 610 l 2
 599.078125 610 650.006835938 559.072265625 650.006835938 496.249023438 c 2
 650.006835938 163.75 l 2
 650.006835938 100.928710938 599.078125 50 536.25390625 50 c 2
 203.750976562 50 l 2
 140.927734375 50 90 100.928710938 90 163.75 c 2
 90 496.249023438 l 2
 90 559.072265625 140.927734375 610 203.750976562 610 c 2
EndSplineSet
EndChar
